<?xml version="1.0" ?><svg viewBox="0 0 32 32" xmlns="http://www.w3.org/2000/svg"><defs><style>.cls-1{fill:none;}</style></defs><title/><g id="LINKEDIN"><rect class="cls-1" height="32" id="Frame" width="32"/><g data-name="Linkedin" id="Linkedin-2"><path d="M16,2A14,14,0,1,0,30,16,14.00253,14.00253,0,0,0,16,2Zm8,20.4A1.60471,1.60471,0,0,1,22.4,24H9.6A1.60471,1.60471,0,0,1,8,22.4V9.6A1.60466,1.60466,0,0,1,9.6,8H22.4A1.60466,1.60466,0,0,1,24,9.6Z"/><path d="M12.01,10.8A1.15783,1.15783,0,0,0,10.8,12a1.1446,1.1446,0,0,0,1.18,1.2h.01a1.20005,1.20005,0,0,0,.02-2.4Z"/><path d="M18.51,14a2.32444,2.32444,0,0,0-2.11,1.16V14H14v7.2h2.4V16.83a1.09855,1.09855,0,0,1,.37-.75,1.26851,1.26851,0,0,1,.91-.24,1.24854,1.24854,0,0,1,.66.2,1.61162,1.61162,0,0,1,.52,1.4V21.2H21.2V17.17C21.2,15,20.05,14,18.51,14Z"/><rect height="7.20001" width="2.40002" x="10.79999" y="14"/></g></g></svg>